<?xml version="1.0" encoding="UTF-8" standalone="no"?>
<!DOCTYPE svg PUBLIC "-//W3C//DTD SVG 1.1//EN"
 "http://www.w3.org/Graphics/SVG/1.1/DTD/svg11.dtd">
<!-- Generated by graphviz version 2.44.1 (20200629.0846)
 -->
<!-- Pages: 1 -->
<svg width="834pt" height="260pt"
 viewBox="0.00 0.00 833.61 260.00" xmlns="http://www.w3.org/2000/svg" xmlns:xlink="http://www.w3.org/1999/xlink">
<g id="graph0" class="graph" transform="scale(1 1) rotate(0) translate(4 256)">
<polygon fill="white" stroke="transparent" points="-4,4 -4,-256 829.61,-256 829.61,4 -4,4"/>
<!-- [root] aws_instance.my&#45;first&#45;aws&#45;instance (expand) -->
<g id="node1" class="node">
<title>[root] aws_instance.my&#45;first&#45;aws&#45;instance (expand)</title>
<polygon fill="none" stroke="black" points="492.13,-108 282.13,-108 282.13,-72 492.13,-72 492.13,-108"/>
<text text-anchor="middle" x="387.13" y="-86.3" font-family="Times,serif" font-size="14.00">aws_instance.my&#45;first&#45;aws&#45;instance</text>
</g>
<!-- [root] provider[&quot;registry.terraform.io/hashicorp/aws&quot;] -->
<g id="node2" class="node">
<title>[root] provider[&quot;registry.terraform.io/hashicorp/aws&quot;]</title>
<polygon fill="none" stroke="black" points="387.13,-36 134.6,-18 387.13,0 639.67,-18 387.13,-36"/>
<text text-anchor="middle" x="387.13" y="-14.3" font-family="Times,serif" font-size="14.00">provider[&quot;registry.terraform.io/hashicorp/aws&quot;]</text>
</g>
<!-- [root] aws_instance.my&#45;first&#45;aws&#45;instance (expand)&#45;&gt;[root] provider[&quot;registry.terraform.io/hashicorp/aws&quot;] -->
<g id="edge1" class="edge">
<title>[root] aws_instance.my&#45;first&#45;aws&#45;instance (expand)&#45;&gt;[root] provider[&quot;registry.terraform.io/hashicorp/aws&quot;]</title>
<path fill="none" stroke="black" d="M387.13,-71.7C387.13,-63.98 387.13,-54.71 387.13,-46.11"/>
<polygon fill="black" stroke="black" points="390.63,-46.1 387.13,-36.1 383.63,-46.1 390.63,-46.1"/>
</g>
<!-- [root] meta.count&#45;boundary (EachMode fixup) -->
<g id="node3" class="node">
<title>[root] meta.count&#45;boundary (EachMode fixup)</title>
<ellipse fill="none" stroke="black" cx="176.13" cy="-162" rx="176.27" ry="18"/>
<text text-anchor="middle" x="176.13" y="-158.3" font-family="Times,serif" font-size="14.00">[root] meta.count&#45;boundary (EachMode fixup)</text>
</g>
<!-- [root] meta.count&#45;boundary (EachMode fixup)&#45;&gt;[root] aws_instance.my&#45;first&#45;aws&#45;instance (expand) -->
<g id="edge2" class="edge">
<title>[root] meta.count&#45;boundary (EachMode fixup)&#45;&gt;[root] aws_instance.my&#45;first&#45;aws&#45;instance (expand)</title>
<path fill="none" stroke="black" d="M225.34,-144.68C255.36,-134.72 293.97,-121.91 325.95,-111.3"/>
<polygon fill="black" stroke="black" points="327.26,-114.55 335.64,-108.08 325.05,-107.91 327.26,-114.55"/>
</g>
<!-- [root] provider[&quot;registry.terraform.io/hashicorp/aws&quot;] (close) -->
<g id="node4" class="node">
<title>[root] provider[&quot;registry.terraform.io/hashicorp/aws&quot;] (close)</title>
<ellipse fill="none" stroke="black" cx="598.13" cy="-162" rx="227.46" ry="18"/>
<text text-anchor="middle" x="598.13" y="-158.3" font-family="Times,serif" font-size="14.00">[root] provider[&quot;registry.terraform.io/hashicorp/aws&quot;] (close)</text>
</g>
<!-- [root] provider[&quot;registry.terraform.io/hashicorp/aws&quot;] (close)&#45;&gt;[root] aws_instance.my&#45;first&#45;aws&#45;instance (expand) -->
<g id="edge3" class="edge">
<title>[root] provider[&quot;registry.terraform.io/hashicorp/aws&quot;] (close)&#45;&gt;[root] aws_instance.my&#45;first&#45;aws&#45;instance (expand)</title>
<path fill="none" stroke="black" d="M548.13,-144.41C518.2,-134.48 479.94,-121.79 448.23,-111.27"/>
<polygon fill="black" stroke="black" points="449.21,-107.91 438.61,-108.08 447,-114.55 449.21,-107.91"/>
</g>
<!-- [root] root -->
<g id="node5" class="node">
<title>[root] root</title>
<ellipse fill="none" stroke="black" cx="387.13" cy="-234" rx="47.39" ry="18"/>
<text text-anchor="middle" x="387.13" y="-230.3" font-family="Times,serif" font-size="14.00">[root] root</text>
</g>
<!-- [root] root&#45;&gt;[root] meta.count&#45;boundary (EachMode fixup) -->
<g id="edge4" class="edge">
<title>[root] root&#45;&gt;[root] meta.count&#45;boundary (EachMode fixup)</title>
<path fill="none" stroke="black" d="M352.29,-221.44C320.49,-210.89 272.83,-195.08 235.1,-182.56"/>
<polygon fill="black" stroke="black" points="235.83,-179.12 225.24,-179.29 233.63,-185.76 235.83,-179.12"/>
</g>
<!-- [root] root&#45;&gt;[root] provider[&quot;registry.terraform.io/hashicorp/aws&quot;] (close) -->
<g id="edge5" class="edge">
<title>[root] root&#45;&gt;[root] provider[&quot;registry.terraform.io/hashicorp/aws&quot;] (close)</title>
<path fill="none" stroke="black" d="M421.98,-221.44C453.46,-211 500.48,-195.4 538.02,-182.94"/>
<polygon fill="black" stroke="black" points="539.45,-186.16 547.84,-179.68 537.25,-179.51 539.45,-186.16"/>
</g>
</g>
</svg>
